<svg id="SvgjsSvg1055" width="346" height="593" xmlns="http://www.w3.org/2000/svg" version="1.1" xmlns:xlink="http://www.w3.org/1999/xlink" xmlns:svgjs="http://svgjs.com/svgjs"><defs id="SvgjsDefs1056"><marker id="SvgjsMarker1090" markerWidth="16" markerHeight="12" refX="16" refY="6" viewBox="0 0 16 12" orient="auto" markerUnits="userSpaceOnUse" stroke-dasharray="0,0"><path id="SvgjsPath1091" d="M0,2 L14,6 L0,11 L0,2" fill="#323232" stroke="#323232" stroke-width="2"></path></marker><marker id="SvgjsMarker1094" markerWidth="16" markerHeight="12" refX="16" refY="6" viewBox="0 0 16 12" orient="auto" markerUnits="userSpaceOnUse" stroke-dasharray="0,0"><path id="SvgjsPath1095" d="M0,2 L14,6 L0,11 L0,2" fill="#323232" stroke="#323232" stroke-width="2"></path></marker><marker id="SvgjsMarker1098" markerWidth="16" markerHeight="12" refX="16" refY="6" viewBox="0 0 16 12" orient="auto" markerUnits="userSpaceOnUse" stroke-dasharray="0,0"><path id="SvgjsPath1099" d="M0,2 L14,6 L0,11 L0,2" fill="#323232" stroke="#323232" stroke-width="2"></path></marker><marker id="SvgjsMarker1102" markerWidth="16" markerHeight="12" refX="16" refY="6" viewBox="0 0 16 12" orient="auto" markerUnits="userSpaceOnUse" stroke-dasharray="0,0"><path id="SvgjsPath1103" d="M0,2 L14,6 L0,11 L0,2" fill="#323232" stroke="#323232" stroke-width="2"></path></marker></defs><rect id="SvgjsRect1057" width="346" height="593" fill="#ffffff"></rect><g id="SvgjsG1058" transform="translate(25,25)"><path id="SvgjsPath1059" d="M 0 4Q 0 0 4 0L 292 0Q 296 0 296 4L 296 56Q 296 60 292 60L 4 60Q 0 60 0 56Z" stroke="rgba(50,50,50,1)" stroke-width="2" fill-opacity="1" fill="#ffffff"></path><g id="SvgjsG1060"><text id="SvgjsText1061" font-family="微软雅黑" text-anchor="middle" font-size="18px" width="276px" fill="#323232" font-weight="700" align="middle" lineHeight="125%" anchor="middle" family="微软雅黑" size="18px" weight="700" font-style="" opacity="1" y="16.75" transform="rotate(0)"><tspan id="SvgjsTspan1062" dy="22" x="148"><tspan id="SvgjsTspan1063" style="text-decoration:;">OrderController</tspan></tspan></text></g></g><g id="SvgjsG1064" transform="translate(25,145)"><path id="SvgjsPath1065" d="M 0 4Q 0 0 4 0L 292 0Q 296 0 296 4L 296 56Q 296 60 292 60L 4 60Q 0 60 0 56Z" stroke="rgba(50,50,50,1)" stroke-width="2" fill-opacity="1" fill="#ffffff"></path><g id="SvgjsG1066"><text id="SvgjsText1067" font-family="微软雅黑" text-anchor="middle" font-size="18px" width="276px" fill="#323232" font-weight="700" align="middle" lineHeight="125%" anchor="middle" family="微软雅黑" size="18px" weight="700" font-style="" opacity="1" y="5.75" transform="rotate(0)"><tspan id="SvgjsTspan1068" dy="22" x="148"><tspan id="SvgjsTspan1069" style="text-decoration:;">&lt;Interface&gt;OrderServices</tspan></tspan></text></g></g><g id="SvgjsG1070" transform="translate(25,265)"><path id="SvgjsPath1071" d="M 0 4Q 0 0 4 0L 292 0Q 296 0 296 4L 296 56Q 296 60 292 60L 4 60Q 0 60 0 56Z" stroke="rgba(50,50,50,1)" stroke-width="2" fill-opacity="1" fill="#ffffff"></path><g id="SvgjsG1072"><text id="SvgjsText1073" font-family="微软雅黑" text-anchor="middle" font-size="18px" width="276px" fill="#323232" font-weight="700" align="middle" lineHeight="125%" anchor="middle" family="微软雅黑" size="18px" weight="700" font-style="" opacity="1" y="16.75" transform="rotate(0)"><tspan id="SvgjsTspan1074" dy="22" x="148"><tspan id="SvgjsTspan1075" style="text-decoration:;">OrderServicesImpl</tspan></tspan></text></g></g><g id="SvgjsG1076" transform="translate(25,385)"><path id="SvgjsPath1077" d="M 0 4Q 0 0 4 0L 292 0Q 296 0 296 4L 296 56Q 296 60 292 60L 4 60Q 0 60 0 56Z" stroke="rgba(50,50,50,1)" stroke-width="2" fill-opacity="1" fill="#ffffff"></path><g id="SvgjsG1078"><text id="SvgjsText1079" font-family="微软雅黑" text-anchor="middle" font-size="18px" width="276px" fill="#323232" font-weight="700" align="middle" lineHeight="125%" anchor="middle" family="微软雅黑" size="18px" weight="700" font-style="" opacity="1" y="16.75" transform="rotate(0)"><tspan id="SvgjsTspan1080" dy="22" x="148"><tspan id="SvgjsTspan1081" style="text-decoration:;">OrderService</tspan></tspan></text></g></g><g id="SvgjsG1082" transform="translate(25,508)"><path id="SvgjsPath1083" d="M 0 4Q 0 0 4 0L 292 0Q 296 0 296 4L 296 56Q 296 60 292 60L 4 60Q 0 60 0 56Z" stroke="rgba(50,50,50,1)" stroke-width="2" fill-opacity="1" fill="#ffffff"></path><g id="SvgjsG1084"><text id="SvgjsText1085" font-family="微软雅黑" text-anchor="middle" font-size="18px" width="276px" fill="#323232" font-weight="700" align="middle" lineHeight="125%" anchor="middle" family="微软雅黑" size="18px" weight="700" font-style="" opacity="1" y="16.75" transform="rotate(0)"><tspan id="SvgjsTspan1086" dy="22" x="148"><tspan id="SvgjsTspan1087" style="text-decoration:;">OrderRepository</tspan></tspan></text></g></g><g id="SvgjsG1088"><path id="SvgjsPath1089" d="M173 85L173 115L173 115L173 145" stroke="#323232" stroke-width="2" fill="none" marker-end="url(#SvgjsMarker1090)"></path></g><g id="SvgjsG1092"><path id="SvgjsPath1093" d="M173 205L173 235L173 235L173 265" stroke="#323232" stroke-width="2" fill="none" marker-end="url(#SvgjsMarker1094)"></path></g><g id="SvgjsG1096"><path id="SvgjsPath1097" d="M173 325L173 355L173 355L173 385" stroke="#323232" stroke-width="2" fill="none" marker-end="url(#SvgjsMarker1098)"></path></g><g id="SvgjsG1100"><path id="SvgjsPath1101" d="M173 445L173 476.5L173 476.5L173 508" stroke="#323232" stroke-width="2" fill="none" marker-end="url(#SvgjsMarker1102)"></path></g></svg>