<svg id="SvgjsSvg1006" width="376" height="593" xmlns="http://www.w3.org/2000/svg" version="1.1" xmlns:xlink="http://www.w3.org/1999/xlink" xmlns:svgjs="http://svgjs.com/svgjs"><defs id="SvgjsDefs1007"><marker id="SvgjsMarker1043" markerWidth="16" markerHeight="12" refX="16" refY="6" viewBox="0 0 16 12" orient="auto" markerUnits="userSpaceOnUse" stroke-dasharray="0,0"><path id="SvgjsPath1044" d="M0,2 L14,6 L0,11 L0,2" fill="#323232" stroke="#323232" stroke-width="2"></path></marker><marker id="SvgjsMarker1047" markerWidth="16" markerHeight="12" refX="16" refY="6" viewBox="0 0 16 12" orient="auto" markerUnits="userSpaceOnUse" stroke-dasharray="0,0"><path id="SvgjsPath1048" d="M0,2 L14,6 L0,11 L0,2" fill="#323232" stroke="#323232" stroke-width="2"></path></marker><marker id="SvgjsMarker1051" markerWidth="16" markerHeight="12" refX="16" refY="6" viewBox="0 0 16 12" orient="auto" markerUnits="userSpaceOnUse" stroke-dasharray="0,0"><path id="SvgjsPath1052" d="M0,2 L14,6 L0,11 L0,2" fill="#323232" stroke="#323232" stroke-width="2"></path></marker><marker id="SvgjsMarker1061" markerWidth="16" markerHeight="12" refX="16" refY="6" viewBox="0 0 16 12" orient="auto" markerUnits="userSpaceOnUse" stroke-dasharray="0,0"><path id="SvgjsPath1062" d="M0,2 L14,6 L0,11 L0,2" fill="#323232" stroke="#323232" stroke-width="2"></path></marker><marker id="SvgjsMarker1065" markerWidth="16" markerHeight="12" refX="16" refY="6" viewBox="0 0 16 12" orient="auto" markerUnits="userSpaceOnUse" stroke-dasharray="0,0"><path id="SvgjsPath1066" d="M0,2 L14,6 L0,11 L0,2" fill="#323232" stroke="#323232" stroke-width="2"></path></marker></defs><rect id="SvgjsRect1008" width="376" height="593" fill="#ffffff"></rect><g id="SvgjsG1009" transform="translate(55,25)"><path id="SvgjsPath1010" d="M 0 4Q 0 0 4 0L 292 0Q 296 0 296 4L 296 56Q 296 60 292 60L 4 60Q 0 60 0 56Z" stroke="rgba(50,50,50,1)" stroke-width="2" fill-opacity="1" fill="#ffffff"></path><g id="SvgjsG1011"><text id="SvgjsText1012" font-family="微软雅黑" text-anchor="middle" font-size="18px" width="276px" fill="#323232" font-weight="700" align="middle" lineHeight="125%" anchor="middle" family="微软雅黑" size="18px" weight="700" font-style="" opacity="1" y="16.75" transform="rotate(0)"><tspan id="SvgjsTspan1013" dy="22" x="148"><tspan id="SvgjsTspan1014" style="text-decoration:;">OrderController</tspan></tspan></text></g></g><g id="SvgjsG1015" transform="translate(55,145)"><path id="SvgjsPath1016" d="M 0 4Q 0 0 4 0L 292 0Q 296 0 296 4L 296 56Q 296 60 292 60L 4 60Q 0 60 0 56Z" stroke="rgba(50,50,50,1)" stroke-width="2" fill-opacity="1" fill="#ffffff"></path><g id="SvgjsG1017"><text id="SvgjsText1018" font-family="微软雅黑" text-anchor="middle" font-size="18px" width="276px" fill="#323232" font-weight="700" align="middle" lineHeight="125%" anchor="middle" family="微软雅黑" size="18px" weight="700" font-style="" opacity="1" y="5.75" transform="rotate(0)"><tspan id="SvgjsTspan1019" dy="22" x="148"><tspan id="SvgjsTspan1020" style="text-decoration:;">&lt;Interface&gt;OrderServices</tspan></tspan></text></g></g><g id="SvgjsG1021" transform="translate(55,265)"><path id="SvgjsPath1022" d="M 0 4Q 0 0 4 0L 292 0Q 296 0 296 4L 296 56Q 296 60 292 60L 4 60Q 0 60 0 56Z" stroke="rgba(50,50,50,1)" stroke-width="2" fill-opacity="1" fill="#ffffff"></path><g id="SvgjsG1023"><text id="SvgjsText1024" font-family="微软雅黑" text-anchor="middle" font-size="18px" width="276px" fill="#323232" font-weight="700" align="middle" lineHeight="125%" anchor="middle" family="微软雅黑" size="18px" weight="700" font-style="" opacity="1" y="16.75" transform="rotate(0)"><tspan id="SvgjsTspan1025" dy="22" x="148"><tspan id="SvgjsTspan1026" style="text-decoration:;">OrderServicesImpl</tspan></tspan></text></g></g><g id="SvgjsG1027" transform="translate(55,385)"><path id="SvgjsPath1028" d="M 0 4Q 0 0 4 0L 292 0Q 296 0 296 4L 296 56Q 296 60 292 60L 4 60Q 0 60 0 56Z" stroke="rgba(50,50,50,1)" stroke-width="2" fill-opacity="1" fill="#ffffff"></path><g id="SvgjsG1029"><text id="SvgjsText1030" font-family="微软雅黑" text-anchor="middle" font-size="18px" width="276px" fill="#323232" font-weight="700" align="middle" lineHeight="125%" anchor="middle" family="微软雅黑" size="18px" weight="700" font-style="" opacity="1" y="5.75" transform="rotate(0)"><tspan id="SvgjsTspan1031" dy="22" x="148"><tspan id="SvgjsTspan1032" style="text-decoration:;">&lt;Interface&gt;</tspan></tspan><tspan id="SvgjsTspan1033" dy="22" x="148"><tspan id="SvgjsTspan1034" style="text-decoration:;">Orders</tspan></tspan></text></g></g><g id="SvgjsG1035" transform="translate(55,508)"><path id="SvgjsPath1036" d="M 0 4Q 0 0 4 0L 292 0Q 296 0 296 4L 296 56Q 296 60 292 60L 4 60Q 0 60 0 56Z" stroke="rgba(50,50,50,1)" stroke-width="2" fill-opacity="1" fill="#ffffff"></path><g id="SvgjsG1037"><text id="SvgjsText1038" font-family="微软雅黑" text-anchor="middle" font-size="18px" width="276px" fill="#323232" font-weight="700" align="middle" lineHeight="125%" anchor="middle" family="微软雅黑" size="18px" weight="700" font-style="" opacity="1" y="16.75" transform="rotate(0)"><tspan id="SvgjsTspan1039" dy="22" x="148"><tspan id="SvgjsTspan1040" style="text-decoration:;">OrderRepository</tspan></tspan></text></g></g><g id="SvgjsG1041"><path id="SvgjsPath1042" d="M203 205L203 235L203 235L203 265" stroke="#323232" stroke-width="2" fill="none" marker-end="url(#SvgjsMarker1043)"></path></g><g id="SvgjsG1045"><path id="SvgjsPath1046" d="M203 325L203 355L203 355L203 385" stroke="#323232" stroke-width="2" fill="none" marker-end="url(#SvgjsMarker1047)"></path></g><g id="SvgjsG1049"><path id="SvgjsPath1050" d="M55 415L25 415L25 175L55 175" stroke="#323232" stroke-width="2" fill="none" marker-end="url(#SvgjsMarker1051)"></path></g><g id="SvgjsG1053" transform="translate(209,340)"><path id="SvgjsPath1054" d="M 0 0L 83 0L 83 27L 0 27Z" stroke="none" fill="none"></path><g id="SvgjsG1055"><text id="SvgjsText1056" font-family="微软雅黑" text-anchor="middle" font-size="13px" width="83px" fill="#323232" font-weight="400" align="middle" lineHeight="125%" anchor="middle" family="微软雅黑" size="13px" weight="400" font-style="" opacity="1" y="3.875" transform="rotate(0)"><tspan id="SvgjsTspan1057" dy="16" x="41.5"><tspan id="SvgjsTspan1058" style="text-decoration:;">&lt;&lt;ues&gt;&gt;</tspan></tspan></text></g></g><g id="SvgjsG1059"><path id="SvgjsPath1060" d="M203 85L203 115L203 115L203 145" stroke-dasharray="3,3" stroke="#323232" stroke-width="2" fill="none" marker-end="url(#SvgjsMarker1061)"></path></g><g id="SvgjsG1063"><path id="SvgjsPath1064" d="M203 508L203 476.5L203 476.5L203 445" stroke-dasharray="3,3" stroke="#323232" stroke-width="2" fill="none" marker-end="url(#SvgjsMarker1065)"></path></g></svg>