<svg id="SvgjsSvg1006" width="1358.25" height="685.25" xmlns="http://www.w3.org/2000/svg" version="1.1" xmlns:xlink="http://www.w3.org/1999/xlink" xmlns:svgjs="http://svgjs.com/svgjs"><defs id="SvgjsDefs1007"><marker id="SvgjsMarker1057" markerWidth="16" markerHeight="12" refX="16" refY="6" viewBox="0 0 16 12" orient="auto" markerUnits="userSpaceOnUse" stroke-dasharray="0,0"><path id="SvgjsPath1058" d="M0,2 L14,6 L0,11 L0,2" fill="#323232" stroke="#323232" stroke-width="2"></path></marker><marker id="SvgjsMarker1061" markerWidth="16" markerHeight="12" refX="16" refY="6" viewBox="0 0 16 12" orient="auto" markerUnits="userSpaceOnUse" stroke-dasharray="0,0"><path id="SvgjsPath1062" d="M0,2 L14,6 L0,11 L0,2" fill="#323232" stroke="#323232" stroke-width="2"></path></marker><marker id="SvgjsMarker1065" markerWidth="16" markerHeight="12" refX="16" refY="6" viewBox="0 0 16 12" orient="auto" markerUnits="userSpaceOnUse" stroke-dasharray="0,0"><path id="SvgjsPath1066" d="M0,2 L14,6 L0,11 L0,2" fill="#323232" stroke="#323232" stroke-width="2"></path></marker><marker id="SvgjsMarker1093" markerWidth="16" markerHeight="12" refX="16" refY="6" viewBox="0 0 16 12" orient="auto" markerUnits="userSpaceOnUse" stroke-dasharray="0,0"><path id="SvgjsPath1094" d="M0,2 L14,6 L0,11 L0,2" fill="#323232" stroke="#323232" stroke-width="2"></path></marker></defs><g id="SvgjsG1008" transform="matrix(-1.8369701987210297e-16,-1,1,-1.8369701987210297e-16,513.25,660.2500000000001)"><path id="SvgjsPath1009" d="M 163 0Q 154 0 154 9L 154 400.74999999999994Q 154 409.74999999999994 141 409.74999999999994Q 154 409.74999999999994 154 418.74999999999994L 154 810.4999999999999Q 154 819.4999999999999 163 819.4999999999999" stroke="rgba(50,50,50,1)" stroke-width="2" fill-opacity="1" fill="#ffffff"></path><path id="SvgjsPath1010" d="M 0 0L 163 0L 163 819.4999999999999L 0 819.4999999999999Z" stroke="none" fill="none"></path><g id="SvgjsG1011"><text id="SvgjsText1012" font-family="微软雅黑" text-anchor="end" font-size="13px" width="136px" fill="#323232" font-weight="400" align="middle" anchor="end" family="微软雅黑" size="13px" weight="400" font-style="" opacity="1" y="399.79999999999995" transform="rotate(0)"></text></g></g><g id="SvgjsG1013" transform="translate(25,203)"><path id="SvgjsPath1014" d="M 0 0L 100 0L 100 70L 0 70Z" stroke="rgba(50,50,50,1)" stroke-width="2" fill-opacity="1" fill="#ffcc99"></path><g id="SvgjsG1015"><text id="SvgjsText1016" font-family="微软雅黑" text-anchor="middle" font-size="13px" width="80px" fill="#323232" font-weight="400" align="middle" anchor="middle" family="微软雅黑" size="13px" weight="400" font-style="" opacity="1" y="25.05" transform="rotate(0)"><tspan id="SvgjsTspan1017" dy="16" x="50"><tspan id="SvgjsTspan1018" style="text-decoration:;">client</tspan></tspan></text></g></g><g id="SvgjsG1019" transform="translate(25,25)"><path id="SvgjsPath1020" d="M 0 0L 182 0L 198 16L 198 107L 0 107L 0 0Z" stroke="none" fill-opacity="1" fill="#ffcc99"></path><path id="SvgjsPath1021" d="M 182 0L 182 16L 198 16Z" stroke="none" fill-opacity="1" fill="#cdcdcd"></path><path id="SvgjsPath1022" d="M 0 0L 182 0L 198 16L 198 107L 0 107L 0 0Z" stroke="none" fill="none"></path><g id="SvgjsG1023"><text id="SvgjsText1024" font-family="微软雅黑" text-anchor="start" font-size="13px" width="178px" fill="#323232" font-weight="400" align="middle" anchor="start" family="微软雅黑" size="13px" weight="400" font-style="" opacity="1" y="3.55" transform="rotate(0)"><tspan id="SvgjsTspan1025" dy="16" x="10"><tspan id="SvgjsTspan1026" style="text-decoration:;">dev-mvip.knowbox.cn</tspan></tspan><tspan id="SvgjsTspan1027" dy="16" x="10"><tspan id="SvgjsTspan1028" style="text-decoration:;">dev-vip.knowbox.cn</tspan></tspan><tspan id="SvgjsTspan1029" dy="16" x="10"><tspan id="SvgjsTspan1030" style="text-decoration:;">dev-apilive.knowbox.cn</tspan></tspan><tspan id="SvgjsTspan1031" dy="16" x="10"><tspan id="SvgjsTspan1032" style="text-decoration:;">dev-bslive.knowbox.cn</tspan></tspan><tspan id="SvgjsTspan1033" dy="16" x="10"><tspan id="SvgjsTspan1034" style="text-decoration:;">dev-iolive.knowbox.cn</tspan></tspan><tspan id="SvgjsTspan1035" dy="16" x="10"><tspan id="SvgjsTspan1036" style="text-decoration:;">dev-teacherlive.knowbox.cn</tspan></tspan></text></g></g><g id="SvgjsG1037" transform="translate(268,203)"><path id="SvgjsPath1038" d="M 0 0L 100 0L 100 70L 0 70Z" stroke="rgba(50,50,50,1)" stroke-width="2" fill-opacity="1" fill="#ffcc99"></path><g id="SvgjsG1039"><text id="SvgjsText1040" font-family="微软雅黑" text-anchor="middle" font-size="13px" width="80px" fill="#323232" font-weight="400" align="middle" anchor="middle" family="微软雅黑" size="13px" weight="400" font-style="" opacity="1" y="25.05" transform="rotate(0)"><tspan id="SvgjsTspan1041" dy="16" x="50"><tspan id="SvgjsTspan1042" style="text-decoration:;">OpenResty</tspan></tspan></text></g></g><g id="SvgjsG1043" transform="translate(508,203)"><path id="SvgjsPath1044" d="M 0 0L 118 0L 118 70L 0 70Z" stroke="rgba(50,50,50,1)" stroke-width="2" fill-opacity="1" fill="#ffcc99"></path><g id="SvgjsG1045"><text id="SvgjsText1046" font-family="微软雅黑" text-anchor="middle" font-size="13px" width="98px" fill="#323232" font-weight="400" align="middle" anchor="middle" family="微软雅黑" size="13px" weight="400" font-style="" opacity="1" y="25.05" transform="rotate(0)"><tspan id="SvgjsTspan1047" dy="16" x="59"><tspan id="SvgjsTspan1048" style="text-decoration:;">IngressGateway</tspan></tspan></text></g></g><g id="SvgjsG1049" transform="translate(268,359)"><path id="SvgjsPath1050" d="M 0 0L 100 0L 100 70L 0 70Z" stroke="rgba(50,50,50,1)" stroke-width="2" fill-opacity="1" fill="#ffcc99"></path><g id="SvgjsG1051"><text id="SvgjsText1052" font-family="微软雅黑" text-anchor="middle" font-size="13px" width="80px" fill="#323232" font-weight="400" align="middle" anchor="middle" family="微软雅黑" size="13px" weight="400" font-style="" opacity="1" y="25.05" transform="rotate(0)"><tspan id="SvgjsTspan1053" dy="16" x="50"><tspan id="SvgjsTspan1054" style="text-decoration:;">静态页面</tspan></tspan></text></g></g><g id="SvgjsG1055"><path id="SvgjsPath1056" d="M318 273L318 315.5L318 315.5L318 359" stroke="#323232" stroke-width="2" fill="none" marker-end="url(#SvgjsMarker1057)"></path></g><g id="SvgjsG1059"><path id="SvgjsPath1060" d="M125 238L196 238L196 238L268 238" stroke="#323232" stroke-width="2" fill="none" marker-end="url(#SvgjsMarker1061)"></path></g><g id="SvgjsG1063"><path id="SvgjsPath1064" d="M368 238L437.5 238L437.5 238L508 238" stroke="#323232" stroke-width="2" fill="none" marker-end="url(#SvgjsMarker1065)"></path></g><g id="SvgjsG1067" transform="translate(522.5,25)"><path id="SvgjsPath1068" d="M 0 0L 277 0L 293 16L 293 107L 0 107L 0 0Z" stroke="none" fill-opacity="1" fill="#ffcc99"></path><path id="SvgjsPath1069" d="M 277 0L 277 16L 293 16Z" stroke="none" fill-opacity="1" fill="#cdcdcd"></path><path id="SvgjsPath1070" d="M 0 0L 277 0L 293 16L 293 107L 0 107L 0 0Z" stroke="none" fill="none"></path><g id="SvgjsG1071"><text id="SvgjsText1072" font-family="微软雅黑" text-anchor="start" font-size="13px" width="273px" fill="#323232" font-weight="400" align="middle" anchor="start" family="微软雅黑" size="13px" weight="400" font-style="" opacity="1" y="3.55" transform="rotate(0)"><tspan id="SvgjsTspan1073" dy="16" x="10"><tspan id="SvgjsTspan1074" style="text-decoration:;">dev-k8s-mvip.online.knowboxlan.cn</tspan></tspan><tspan id="SvgjsTspan1075" dy="16" x="10"><tspan id="SvgjsTspan1076" style="text-decoration:;">dev-k8s-vip.online.knowboxlan.cn</tspan></tspan><tspan id="SvgjsTspan1077" dy="16" x="10"><tspan id="SvgjsTspan1078" style="text-decoration:;">dev-k8s-apilive.online.knowboxlan.cn</tspan></tspan><tspan id="SvgjsTspan1079" dy="16" x="10"><tspan id="SvgjsTspan1080" style="text-decoration:;">dev-k8s-bslive.online.knowboxlan.cn</tspan></tspan><tspan id="SvgjsTspan1081" dy="16" x="10"><tspan id="SvgjsTspan1082" style="text-decoration:;">dev-k8s-iolive.online.knowboxlan.cn</tspan></tspan><tspan id="SvgjsTspan1083" dy="16" x="10"><tspan id="SvgjsTspan1084" style="text-decoration:;">dev-k8s-teacherlive.online.knowboxlan.cn</tspan></tspan></text></g></g><g id="SvgjsG1085" transform="translate(723,203)"><path id="SvgjsPath1086" d="M 0 0L 118 0L 118 70L 0 70Z" stroke="rgba(50,50,50,1)" stroke-width="2" fill-opacity="1" fill="#ffcc99"></path><g id="SvgjsG1087"><text id="SvgjsText1088" font-family="微软雅黑" text-anchor="middle" font-size="13px" width="98px" fill="#323232" font-weight="400" align="middle" anchor="middle" family="微软雅黑" size="13px" weight="400" font-style="" opacity="1" y="25.05" transform="rotate(0)"><tspan id="SvgjsTspan1089" dy="16" x="59"><tspan id="SvgjsTspan1090" style="text-decoration:;">VirtualService</tspan></tspan></text></g></g><g id="SvgjsG1091"><path id="SvgjsPath1092" d="M626 238L674.5 238L674.5 238L723 238" stroke="#323232" stroke-width="2" fill="none" marker-end="url(#SvgjsMarker1093)"></path></g><g id="SvgjsG1095" transform="translate(955.5,63)"><path id="SvgjsPath1096" d="M 0 0L 163 0L 163 70L 0 70Z" stroke="rgba(50,50,50,1)" stroke-width="2" fill-opacity="1" fill="#ffcc99"></path><g id="SvgjsG1097"><text id="SvgjsText1098" font-family="微软雅黑" text-anchor="middle" font-size="13px" width="143px" fill="#323232" font-weight="400" align="middle" anchor="middle" family="微软雅黑" size="13px" weight="400" font-style="" opacity="1" y="25.05" transform="rotate(0)"><tspan id="SvgjsTspan1099" dy="16" x="81.5"><tspan id="SvgjsTspan1100" style="text-decoration:;">spring-apilive-svc</tspan></tspan></text></g></g><g id="SvgjsG1101" transform="translate(808,82)"><path id="SvgjsPath1102" d="M 100 0Q 91 0 91 9L 91 147Q 91 156 78 156Q 91 156 91 165L 91 303Q 91 312 100 312" stroke="rgba(50,50,50,1)" stroke-width="2" fill-opacity="1" fill="#ffffff"></path><path id="SvgjsPath1103" d="M 0 0L 100 0L 100 312L 0 312Z" stroke="none" fill="none"></path><g id="SvgjsG1104"><text id="SvgjsText1105" font-family="微软雅黑" text-anchor="end" font-size="13px" width="73px" fill="#323232" font-weight="400" align="middle" anchor="end" family="微软雅黑" size="13px" weight="400" font-style="" opacity="1" y="146.05" transform="rotate(0)"></text></g></g><g id="SvgjsG1106" transform="translate(955.5,165)"><path id="SvgjsPath1107" d="M 0 0L 163 0L 163 70L 0 70Z" stroke="rgba(50,50,50,1)" stroke-width="2" fill-opacity="1" fill="#ffcc99"></path><g id="SvgjsG1108"><text id="SvgjsText1109" font-family="微软雅黑" text-anchor="middle" font-size="13px" width="143px" fill="#323232" font-weight="400" align="middle" anchor="middle" family="微软雅黑" size="13px" weight="400" font-style="" opacity="1" y="25.05" transform="rotate(0)"><tspan id="SvgjsTspan1110" dy="16" x="81.5"><tspan id="SvgjsTspan1111" style="text-decoration:;">spring-bslive-svc</tspan></tspan></text></g></g><g id="SvgjsG1112" transform="translate(955.5,268)"><path id="SvgjsPath1113" d="M 0 0L 163 0L 163 70L 0 70Z" stroke="rgba(50,50,50,1)" stroke-width="2" fill-opacity="1" fill="#ffcc99"></path><g id="SvgjsG1114"><text id="SvgjsText1115" font-family="微软雅黑" text-anchor="middle" font-size="13px" width="143px" fill="#323232" font-weight="400" align="middle" anchor="middle" family="微软雅黑" size="13px" weight="400" font-style="" opacity="1" y="25.05" transform="rotate(0)"><tspan id="SvgjsTspan1116" dy="16" x="81.5"><tspan id="SvgjsTspan1117" style="text-decoration:;">spring-iolive-svc</tspan></tspan></text></g></g><g id="SvgjsG1118" transform="translate(955.5,368)"><path id="SvgjsPath1119" d="M 0 0L 163 0L 163 70L 0 70Z" stroke="rgba(50,50,50,1)" stroke-width="2" fill-opacity="1" fill="#ffcc99"></path><g id="SvgjsG1120"><text id="SvgjsText1121" font-family="微软雅黑" text-anchor="middle" font-size="13px" width="143px" fill="#323232" font-weight="400" align="middle" anchor="middle" family="微软雅黑" size="13px" weight="400" font-style="" opacity="1" y="25.05" transform="rotate(0)"><tspan id="SvgjsTspan1122" dy="16" x="81.5"><tspan id="SvgjsTspan1123" style="text-decoration:;">spring-teacherlive-svc</tspan></tspan></text></g></g><g id="SvgjsG1124"><path id="SvgjsPath1125" d="M1166 39L1166 249.5L1166 249.5L1166 460" stroke="#323232" stroke-width="2" fill="none"></path></g><g id="SvgjsG1126" transform="translate(1225,62.5)"><path id="SvgjsPath1127" d="M 0 0L 92 0L 92 40L 0 40Z" stroke="rgba(50,50,50,1)" stroke-width="2" fill-opacity="1" fill="#ffcc99"></path><g id="SvgjsG1128"><text id="SvgjsText1129" font-family="微软雅黑" text-anchor="middle" font-size="13px" width="72px" fill="#323232" font-weight="400" align="middle" anchor="middle" family="微软雅黑" size="13px" weight="400" font-style="" opacity="1" y="10.05" transform="rotate(0)"><tspan id="SvgjsTspan1130" dy="16" x="46"><tspan id="SvgjsTspan1131" style="text-decoration:;">basic</tspan></tspan></text></g></g><g id="SvgjsG1132" transform="translate(1225,124.5)"><path id="SvgjsPath1133" d="M 0 0L 92 0L 92 40L 0 40Z" stroke="rgba(50,50,50,1)" stroke-width="2" fill-opacity="1" fill="#ffcc99"></path><g id="SvgjsG1134"><text id="SvgjsText1135" font-family="微软雅黑" text-anchor="middle" font-size="13px" width="72px" fill="#323232" font-weight="400" align="middle" anchor="middle" family="微软雅黑" size="13px" weight="400" font-style="" opacity="1" y="10.05" transform="rotate(0)"><tspan id="SvgjsTspan1136" dy="16" x="46"><tspan id="SvgjsTspan1137" style="text-decoration:;">cathedra</tspan></tspan></text></g></g><g id="SvgjsG1138" transform="translate(1225,180)"><path id="SvgjsPath1139" d="M 0 0L 92 0L 92 40L 0 40Z" stroke="rgba(50,50,50,1)" stroke-width="2" fill-opacity="1" fill="#ffcc99"></path><g id="SvgjsG1140"><text id="SvgjsText1141" font-family="微软雅黑" text-anchor="middle" font-size="13px" width="72px" fill="#323232" font-weight="400" align="middle" anchor="middle" family="微软雅黑" size="13px" weight="400" font-style="" opacity="1" y="10.05" transform="rotate(0)"><tspan id="SvgjsTspan1142" dy="16" x="46"><tspan id="SvgjsTspan1143" style="text-decoration:;">course</tspan></tspan></text></g></g><g id="SvgjsG1144"><path id="SvgjsPath1145" d="M1274 255L1274 301L1274 301L1274 347" stroke-dasharray="10,5,3,5" stroke="#323232" stroke-width="2" fill="none"></path></g><g id="SvgjsG1146" transform="translate(1225,383)"><path id="SvgjsPath1147" d="M 0 0L 92 0L 92 40L 0 40Z" stroke="rgba(50,50,50,1)" stroke-width="2" fill-opacity="1" fill="#ffcc99"></path><g id="SvgjsG1148"><text id="SvgjsText1149" font-family="微软雅黑" text-anchor="middle" font-size="13px" width="72px" fill="#323232" font-weight="400" align="middle" anchor="middle" family="微软雅黑" size="13px" weight="400" font-style="" opacity="1" y="10.05" transform="rotate(0)"><tspan id="SvgjsTspan1150" dy="16" x="46"><tspan id="SvgjsTspan1151" style="text-decoration:;">user</tspan></tspan></text></g></g><g id="SvgjsG1152" transform="translate(851.5,520.5)"><path id="SvgjsPath1153" d="M 0 0L 143 0L 143 49L 0 49Z" stroke="none" fill="none"></path><g id="SvgjsG1154"><text id="SvgjsText1155" font-family="微软雅黑" text-anchor="middle" font-size="13px" width="143px" fill="#323232" font-weight="400" align="middle" anchor="middle" family="微软雅黑" size="13px" weight="400" font-style="" opacity="1" y="14.55" transform="rotate(0)"><tspan id="SvgjsTspan1156" dy="16" x="71.5"><tspan id="SvgjsTspan1157" style="text-decoration:;">容器</tspan></tspan></text></g></g><g id="SvgjsG1158" transform="matrix(-1.8369701987210297e-16,-1,1,-1.8369701987210297e-16,248.50000000000023,632.5000000000002)"><path id="SvgjsPath1159" d="M 135.50000000000045 0Q 126.50000000000045 0 126.50000000000045 9L 126.50000000000045 60.5Q 126.50000000000045 69.5 113.50000000000045 69.5Q 126.50000000000045 69.5 126.50000000000045 78.5L 126.50000000000045 130Q 126.50000000000045 139 135.50000000000045 139" stroke="rgba(50,50,50,1)" stroke-width="2" fill-opacity="1" fill="#ffffff"></path><path id="SvgjsPath1160" d="M 0 0L 135.50000000000045 0L 135.50000000000045 139L 0 139Z" stroke="none" fill="none"></path><g id="SvgjsG1161"><text id="SvgjsText1162" font-family="微软雅黑" text-anchor="end" font-size="13px" width="109px" fill="#323232" font-weight="400" align="middle" anchor="end" family="微软雅黑" size="13px" weight="400" font-style="" opacity="1" y="59.55" transform="rotate(0)"></text></g></g><g id="SvgjsG1163" transform="translate(259,525)"><path id="SvgjsPath1164" d="M 0 0L 118 0L 118 40L 0 40Z" stroke="none" fill="none"></path><g id="SvgjsG1165"><text id="SvgjsText1166" font-family="微软雅黑" text-anchor="middle" font-size="13px" width="118px" fill="#323232" font-weight="400" align="middle" anchor="middle" family="微软雅黑" size="13px" weight="400" font-style="" opacity="1" y="10.05" transform="rotate(0)"><tspan id="SvgjsTspan1167" dy="16" x="59"><tspan id="SvgjsTspan1168" style="text-decoration:;">反向代理</tspan></tspan></text></g></g></svg>