<svg id="SvgjsSvg1006" width="742" height="778" xmlns="http://www.w3.org/2000/svg" version="1.1" xmlns:xlink="http://www.w3.org/1999/xlink" xmlns:svgjs="http://svgjs.com/svgjs"><defs id="SvgjsDefs1007"></defs><g id="SvgjsG1008" transform="translate(246,466)"><path id="SvgjsPath1009" d="M 0 0L 471 0L 471 231L 0 231Z" stroke="rgba(50,50,50,1)" stroke-width="2" fill-opacity="1" fill="#ff9999"></path><g id="SvgjsG1010"><text id="SvgjsText1011" font-family="微软雅黑" text-anchor="middle" font-size="13px" width="451px" fill="#323232" font-weight="400" align="middle" anchor="middle" family="微软雅黑" size="13px" weight="400" font-style="" opacity="1" y="105.55" transform="rotate(0)"></text></g></g><g id="SvgjsG1012" transform="translate(246,81)"><path id="SvgjsPath1013" d="M 0 0L 471 0L 471 232L 0 232Z" stroke="rgba(50,50,50,1)" stroke-width="2" fill-opacity="1" fill="#ff9999"></path><g id="SvgjsG1014"><text id="SvgjsText1015" font-family="微软雅黑" text-anchor="middle" font-size="13px" width="451px" fill="#323232" font-weight="400" align="middle" anchor="middle" family="微软雅黑" size="13px" weight="400" font-style="" opacity="1" y="106.05" transform="rotate(0)"></text></g></g><g id="SvgjsG1016" transform="translate(391,131.5)"><path id="SvgjsPath1017" d="M 0 0L 314 0L 314 160.5L 0 160.5Z" stroke="rgba(50,50,50,1)" stroke-width="2" fill-opacity="1" fill="#ffcccc"></path><g id="SvgjsG1018"><text id="SvgjsText1019" font-family="微软雅黑" text-anchor="middle" font-size="13px" width="294px" fill="#323232" font-weight="400" align="middle" anchor="middle" family="微软雅黑" size="13px" weight="400" font-style="" opacity="1" y="70.3" transform="rotate(0)"></text></g></g><g id="SvgjsG1020" transform="translate(413.14102564102564,137.5841121495327)"><path id="SvgjsPath1021" d="M 0 0L 269.7179487179487 0L 269.7179487179487 17.38317757009346L 0 17.38317757009346Z" stroke="none" fill="none"></path><g id="SvgjsG1022"><text id="SvgjsText1023" font-family="微软雅黑" text-anchor="middle" font-size="13px" width="270px" fill="#323232" font-weight="400" align="middle" anchor="middle" family="微软雅黑" size="13px" weight="400" font-style="" opacity="1" y="-1.2584112149532707" transform="rotate(0)"><tspan id="SvgjsTspan1024" dy="16" x="135"><tspan id="SvgjsTspan1025" style="text-decoration:;">后端转发</tspan></tspan></text></g></g><g id="SvgjsG1026" transform="translate(269,519.5)"><path id="SvgjsPath1027" d="M 0 0L 156 0L 156 150.5L 0 150.5Z" stroke="rgba(50,50,50,1)" stroke-width="2" fill-opacity="1" fill="#ffcccc"></path><g id="SvgjsG1028"><text id="SvgjsText1029" font-family="微软雅黑" text-anchor="middle" font-size="13px" width="136px" fill="#323232" font-weight="400" align="middle" anchor="middle" family="微软雅黑" size="13px" weight="400" font-style="" opacity="1" y="65.3" transform="rotate(0)"></text></g></g><g id="SvgjsG1030" transform="translate(280,554.5)"><path id="SvgjsPath1031" d="M 0 0L 134 0L 134 24L 0 24Z" stroke="rgba(50,50,50,1)" stroke-width="2" fill-opacity="1" fill="#ffcccc"></path><g id="SvgjsG1032"><text id="SvgjsText1033" font-family="微软雅黑" text-anchor="middle" font-size="13px" width="114px" fill="#323232" font-weight="400" align="middle" anchor="middle" family="微软雅黑" size="13px" weight="400" font-style="" opacity="1" y="2.05" transform="rotate(0)"><tspan id="SvgjsTspan1034" dy="16" x="67"><tspan id="SvgjsTspan1035" style="text-decoration:;">master-ha-01</tspan></tspan></text></g></g><g id="SvgjsG1036" transform="translate(280,525.5)"><path id="SvgjsPath1037" d="M 0 0L 134 0L 134 20L 0 20Z" stroke="none" fill="none"></path><g id="SvgjsG1038"><text id="SvgjsText1039" font-family="微软雅黑" text-anchor="middle" font-size="13px" width="134px" fill="#323232" font-weight="400" align="middle" anchor="middle" family="微软雅黑" size="13px" weight="400" font-style="" opacity="1" y="0.050000000000000044" transform="rotate(0)"><tspan id="SvgjsTspan1040" dy="16" x="67"><tspan id="SvgjsTspan1041" style="text-decoration:;">master集群</tspan></tspan></text></g></g><g id="SvgjsG1042" transform="translate(420,426)"><path id="SvgjsPath1043" d="M 0 0L 297 0L 297 40L 0 40Z" stroke="rgba(50,50,50,1)" stroke-width="2" fill-opacity="1" fill="#66b2ff"></path><g id="SvgjsG1044"><text id="SvgjsText1045" font-family="微软雅黑" text-anchor="middle" font-size="13px" width="277px" fill="#323232" font-weight="400" align="middle" anchor="middle" family="微软雅黑" size="13px" weight="400" font-style="" opacity="1" y="10.05" transform="rotate(0)"><tspan id="SvgjsTspan1046" dy="16" x="148.5"><tspan id="SvgjsTspan1047" style="text-decoration:;">IngressGateway</tspan></tspan></text></g></g><g id="SvgjsG1048" transform="translate(25,81)"><path id="SvgjsPath1049" d="M 0 0L 106 0L 106 672L 0 672Z" stroke="rgba(50,50,50,1)" stroke-width="2" fill-opacity="1" fill="#9999ff"></path><g id="SvgjsG1050"><text id="SvgjsText1051" font-family="微软雅黑" text-anchor="middle" font-size="13px" width="86px" fill="#323232" font-weight="400" align="middle" anchor="middle" family="微软雅黑" size="13px" weight="400" font-style="" opacity="1" y="326.05" transform="rotate(0)"><tspan id="SvgjsTspan1052" dy="16" x="53"><tspan id="SvgjsTspan1053" style="text-decoration:;">Jenkiins部署</tspan></tspan></text></g></g><g id="SvgjsG1054" transform="translate(241.5,368.75)"><path id="SvgjsPath1055" d="M 0 0L 126 0L 126 45L 0 45Z" stroke="rgba(50,50,50,1)" stroke-width="2" fill-opacity="1" fill="#66b2ff"></path><g id="SvgjsG1056"><text id="SvgjsText1057" font-family="微软雅黑" text-anchor="middle" font-size="13px" width="106px" fill="#323232" font-weight="400" align="middle" anchor="middle" family="微软雅黑" size="13px" weight="400" font-style="" opacity="1" y="12.55" transform="rotate(0)"><tspan id="SvgjsTspan1058" dy="16" x="63"><tspan id="SvgjsTspan1059" style="text-decoration:;">前端代码</tspan></tspan></text></g></g><g id="SvgjsG1060" transform="translate(159,571.5)"><path id="SvgjsPath1061" d="M 0 6.6000000000000005L 51 6.6000000000000005L 51 0L 61 10L 51 20L 51 13.4L 0 13.4L 0 6.6000000000000005Z" stroke="rgba(50,50,50,1)" stroke-width="2" fill-opacity="1" fill="#ffffff"></path><g id="SvgjsG1062"><text id="SvgjsText1063" font-family="微软雅黑" text-anchor="middle" font-size="13px" width="61px" fill="#323232" font-weight="400" align="middle" anchor="middle" family="微软雅黑" size="13px" weight="400" font-style="" opacity="1" y="0.05000000000000093" transform="rotate(0)"></text></g></g><g id="SvgjsG1064" transform="translate(320,328.5625)"><path id="SvgjsPath1065" d="M 0 0L 38 0L 38 24L 0 24Z" stroke="none" fill="none"></path><g id="SvgjsG1066"><text id="SvgjsText1067" font-family="微软雅黑" text-anchor="middle" font-size="13px" width="38px" fill="#323232" font-weight="400" align="middle" anchor="middle" family="微软雅黑" size="13px" weight="400" font-style="" opacity="1" y="2.05" transform="rotate(0)"><tspan id="SvgjsTspan1068" dy="16" x="19"><tspan id="SvgjsTspan1069" style="text-decoration:;">访问</tspan></tspan></text></g></g><g id="SvgjsG1070" transform="translate(162.5,542.5)"><path id="SvgjsPath1071" d="M 0 0L 54 0L 54 29L 0 29Z" stroke="none" fill="none"></path><g id="SvgjsG1072"><text id="SvgjsText1073" font-family="微软雅黑" text-anchor="middle" font-size="13px" width="54px" fill="#323232" font-weight="400" align="middle" anchor="middle" family="微软雅黑" size="13px" weight="400" font-style="" opacity="1" y="4.55" transform="rotate(0)"><tspan id="SvgjsTspan1074" dy="16" x="27"><tspan id="SvgjsTspan1075" style="text-decoration:;">部署后端</tspan></tspan></text></g></g><g id="SvgjsG1076" transform="translate(159,352.25)"><path id="SvgjsPath1077" d="M 0 0L 54 0L 54 29L 0 29Z" stroke="none" fill="none"></path><g id="SvgjsG1078"><text id="SvgjsText1079" font-family="微软雅黑" text-anchor="middle" font-size="13px" width="54px" fill="#323232" font-weight="400" align="middle" anchor="middle" family="微软雅黑" size="13px" weight="400" font-style="" opacity="1" y="4.55" transform="rotate(0)"><tspan id="SvgjsTspan1080" dy="16" x="27"><tspan id="SvgjsTspan1081" style="text-decoration:;">部署前端</tspan></tspan></text></g></g><g id="SvgjsG1082" transform="translate(246,25)"><path id="SvgjsPath1083" d="M 0 0L 471 0L 471 42L 0 42Z" stroke="rgba(50,50,50,1)" stroke-width="2" fill-opacity="1" fill="#ffb366"></path><g id="SvgjsG1084"><text id="SvgjsText1085" font-family="微软雅黑" text-anchor="middle" font-size="13px" width="451px" fill="#323232" font-weight="400" align="middle" anchor="middle" family="微软雅黑" size="13px" weight="400" font-style="" opacity="1" y="11.05" transform="rotate(0)"><tspan id="SvgjsTspan1086" dy="16" x="235.5"><tspan id="SvgjsTspan1087" style="text-decoration:;">用户访问层</tspan></tspan></text></g></g><g id="SvgjsG1088" transform="translate(258,131.5)"><path id="SvgjsPath1089" d="M 0 0L 80 0L 80 160.5L 0 160.5Z" stroke="rgba(50,50,50,1)" stroke-width="2" fill-opacity="1" fill="#ffcccc"></path><g id="SvgjsG1090"><text id="SvgjsText1091" font-family="微软雅黑" text-anchor="middle" font-size="13px" width="60px" fill="#323232" font-weight="400" align="middle" anchor="middle" family="微软雅黑" size="13px" weight="400" font-style="" opacity="1" y="70.3" transform="rotate(0)"><tspan id="SvgjsTspan1092" dy="16" x="40"><tspan id="SvgjsTspan1093" style="text-decoration:;">前端转发</tspan></tspan></text></g></g><g id="SvgjsG1094" transform="translate(409.5705128205128,257.68691588785043)"><path id="SvgjsPath1095" d="M 0 0L 276.85897435897436 0L 276.85897435897436 20L 0 20Z" stroke="rgba(50,50,50,1)" stroke-width="2" fill-opacity="1" fill="#ffcccc"></path><g id="SvgjsG1096"><text id="SvgjsText1097" font-family="微软雅黑" text-anchor="middle" font-size="13px" width="257px" fill="#323232" font-weight="400" align="middle" anchor="middle" family="微软雅黑" size="13px" weight="400" font-style="" opacity="1" y="0.050000000000000044" transform="rotate(0)"><tspan id="SvgjsTspan1098" dy="16" x="138.5"><tspan id="SvgjsTspan1099" style="text-decoration:;">dev-k8s-teacherlive.online.knowboxlan.cn</tspan></tspan></text></g></g><g id="SvgjsG1100" transform="translate(409.5705128205128,226.68691588785043)"><path id="SvgjsPath1101" d="M 0 0L 276.85897435897436 0L 276.85897435897436 20L 0 20Z" stroke="rgba(50,50,50,1)" stroke-width="2" fill-opacity="1" fill="#ffcccc"></path><g id="SvgjsG1102"><text id="SvgjsText1103" font-family="微软雅黑" text-anchor="middle" font-size="13px" width="257px" fill="#323232" font-weight="400" align="middle" anchor="middle" family="微软雅黑" size="13px" weight="400" font-style="" opacity="1" y="0.050000000000000044" transform="rotate(0)"><tspan id="SvgjsTspan1104" dy="16" x="138.5"><tspan id="SvgjsTspan1105" style="text-decoration:;">dev-k8s-iolive.online.knowboxlan.cn</tspan></tspan></text></g></g><g id="SvgjsG1106" transform="translate(409.5705128205128,194.68691588785043)"><path id="SvgjsPath1107" d="M 0 0L 276.85897435897436 0L 276.85897435897436 20L 0 20Z" stroke="rgba(50,50,50,1)" stroke-width="2" fill-opacity="1" fill="#ffcccc"></path><g id="SvgjsG1108"><text id="SvgjsText1109" font-family="微软雅黑" text-anchor="middle" font-size="13px" width="257px" fill="#323232" font-weight="400" align="middle" anchor="middle" family="微软雅黑" size="13px" weight="400" font-style="" opacity="1" y="0.050000000000000044" transform="rotate(0)"><tspan id="SvgjsTspan1110" dy="16" x="138.5"><tspan id="SvgjsTspan1111" style="text-decoration:;">dev-k8s-bslive.online.knowboxlan.cn</tspan></tspan></text></g></g><g id="SvgjsG1112" transform="translate(409.5705128205128,162.5)"><path id="SvgjsPath1113" d="M 0 0L 276.85897435897436 0L 276.85897435897436 20L 0 20Z" stroke="rgba(50,50,50,1)" stroke-width="2" fill-opacity="1" fill="#ffcccc"></path><g id="SvgjsG1114"><text id="SvgjsText1115" font-family="微软雅黑" text-anchor="middle" font-size="13px" width="257px" fill="#323232" font-weight="400" align="middle" anchor="middle" family="微软雅黑" size="13px" weight="400" font-style="" opacity="1" y="0.050000000000000044" transform="rotate(0)"><tspan id="SvgjsTspan1116" dy="16" x="138.5"><tspan id="SvgjsTspan1117" style="text-decoration:;">dev-k8s-apilive.online.knowboxlan.cn</tspan></tspan></text></g></g><g id="SvgjsG1118" transform="translate(558.5,321.75)"><path id="SvgjsPath1119" d="M 6.6000000000000005 0L 13.4 0L 13.4 82L 20 82L 10 92L 0 82L 6.6000000000000005 82L 6.6000000000000005 0Z" stroke="rgba(50,50,50,1)" stroke-width="2" fill-opacity="1" fill="#ffffff"></path><g id="SvgjsG1120"><text id="SvgjsText1121" font-family="微软雅黑" text-anchor="middle" font-size="13px" width="28px" fill="#323232" font-weight="400" align="middle" anchor="middle" family="微软雅黑" size="13px" weight="400" font-style="" opacity="1" y="31.450000000000006" transform="rotate(0)"></text></g></g><g id="SvgjsG1122" transform="translate(294.5,321.75)"><path id="SvgjsPath1123" d="M 6.6000000000000005 0L 13.4 0L 13.4 27.625L 20 27.625L 10 37.625L 0 27.625L 6.6000000000000005 27.625L 6.6000000000000005 0Z" stroke="rgba(50,50,50,1)" stroke-width="2" fill-opacity="1" fill="#ffffff"></path><g id="SvgjsG1124"><text id="SvgjsText1125" font-family="微软雅黑" text-anchor="middle" font-size="13px" width="28px" fill="#323232" font-weight="400" align="middle" anchor="middle" family="微软雅黑" size="13px" weight="400" font-style="" opacity="1" y="6.981249999999998" transform="rotate(0)"></text></g></g><g id="SvgjsG1126" transform="translate(280,591.5)"><path id="SvgjsPath1127" d="M 0 0L 134 0L 134 24L 0 24Z" stroke="rgba(50,50,50,1)" stroke-width="2" fill-opacity="1" fill="#ffcccc"></path><g id="SvgjsG1128"><text id="SvgjsText1129" font-family="微软雅黑" text-anchor="middle" font-size="13px" width="114px" fill="#323232" font-weight="400" align="middle" anchor="middle" family="微软雅黑" size="13px" weight="400" font-style="" opacity="1" y="2.05" transform="rotate(0)"><tspan id="SvgjsTspan1130" dy="16" x="67"><tspan id="SvgjsTspan1131" style="text-decoration:;">master-ha-02</tspan></tspan></text></g></g><g id="SvgjsG1132" transform="translate(280,630.5)"><path id="SvgjsPath1133" d="M 0 0L 134 0L 134 24L 0 24Z" stroke="rgba(50,50,50,1)" stroke-width="2" fill-opacity="1" fill="#ffcccc"></path><g id="SvgjsG1134"><text id="SvgjsText1135" font-family="微软雅黑" text-anchor="middle" font-size="13px" width="114px" fill="#323232" font-weight="400" align="middle" anchor="middle" family="微软雅黑" size="13px" weight="400" font-style="" opacity="1" y="2.05" transform="rotate(0)"><tspan id="SvgjsTspan1136" dy="16" x="67"><tspan id="SvgjsTspan1137" style="text-decoration:;">master-ha-03</tspan></tspan></text></g></g><g id="SvgjsG1138" transform="translate(468,519.5)"><path id="SvgjsPath1139" d="M 0 0L 224 0L 224 150.5L 0 150.5Z" stroke="rgba(50,50,50,1)" stroke-width="2" fill-opacity="1" fill="#ffcccc"></path><g id="SvgjsG1140"><text id="SvgjsText1141" font-family="微软雅黑" text-anchor="middle" font-size="13px" width="204px" fill="#323232" font-weight="400" align="middle" anchor="middle" family="微软雅黑" size="13px" weight="400" font-style="" opacity="1" y="65.3" transform="rotate(0)"></text></g></g><g id="SvgjsG1142" transform="translate(513,525.5)"><path id="SvgjsPath1143" d="M 0 0L 134 0L 134 20L 0 20Z" stroke="none" fill="none"></path><g id="SvgjsG1144"><text id="SvgjsText1145" font-family="微软雅黑" text-anchor="middle" font-size="13px" width="134px" fill="#323232" font-weight="400" align="middle" anchor="middle" family="微软雅黑" size="13px" weight="400" font-style="" opacity="1" y="0.050000000000000044" transform="rotate(0)"><tspan id="SvgjsTspan1146" dy="16" x="67"><tspan id="SvgjsTspan1147" style="text-decoration:;">node集群</tspan></tspan></text></g></g><g id="SvgjsG1148" transform="translate(487.5,554.5)"><path id="SvgjsPath1149" d="M 0 0L 78 0L 78 24L 0 24Z" stroke="rgba(50,50,50,1)" stroke-width="2" fill-opacity="1" fill="#ffcccc"></path><g id="SvgjsG1150"><text id="SvgjsText1151" font-family="微软雅黑" text-anchor="middle" font-size="13px" width="58px" fill="#323232" font-weight="400" align="middle" anchor="middle" family="微软雅黑" size="13px" weight="400" font-style="" opacity="1" y="2.05" transform="rotate(0)"><tspan id="SvgjsTspan1152" dy="16" x="39"><tspan id="SvgjsTspan1153" style="text-decoration:;">node-01</tspan></tspan></text></g></g><g id="SvgjsG1154" transform="translate(591.8589743589744,548.5)"><path id="SvgjsPath1155" d="M 0 0L 78 0L 78 24L 0 24Z" stroke="rgba(50,50,50,1)" stroke-width="2" fill-opacity="1" fill="#ffcccc"></path><g id="SvgjsG1156"><text id="SvgjsText1157" font-family="微软雅黑" text-anchor="middle" font-size="13px" width="58px" fill="#323232" font-weight="400" align="middle" anchor="middle" family="微软雅黑" size="13px" weight="400" font-style="" opacity="1" y="2.05" transform="rotate(0)"><tspan id="SvgjsTspan1158" dy="16" x="39"><tspan id="SvgjsTspan1159" style="text-decoration:;">node-02</tspan></tspan></text></g></g><g id="SvgjsG1160" transform="translate(487.5,591.5)"><path id="SvgjsPath1161" d="M 0 0L 78 0L 78 24L 0 24Z" stroke="rgba(50,50,50,1)" stroke-width="2" fill-opacity="1" fill="#ffcccc"></path><g id="SvgjsG1162"><text id="SvgjsText1163" font-family="微软雅黑" text-anchor="middle" font-size="13px" width="58px" fill="#323232" font-weight="400" align="middle" anchor="middle" family="微软雅黑" size="13px" weight="400" font-style="" opacity="1" y="2.05" transform="rotate(0)"><tspan id="SvgjsTspan1164" dy="16" x="39"><tspan id="SvgjsTspan1165" style="text-decoration:;">node-03</tspan></tspan></text></g></g><g id="SvgjsG1166" transform="translate(591.8589743589744,591.5)"><path id="SvgjsPath1167" d="M 0 0L 78 0L 78 24L 0 24Z" stroke="rgba(50,50,50,1)" stroke-width="2" fill-opacity="1" fill="#ffcccc"></path><g id="SvgjsG1168"><text id="SvgjsText1169" font-family="微软雅黑" text-anchor="middle" font-size="13px" width="58px" fill="#323232" font-weight="400" align="middle" anchor="middle" family="微软雅黑" size="13px" weight="400" font-style="" opacity="1" y="2.05" transform="rotate(0)"><tspan id="SvgjsTspan1170" dy="16" x="39"><tspan id="SvgjsTspan1171" style="text-decoration:;">node-04</tspan></tspan></text></g></g><g id="SvgjsG1172" transform="translate(487.5,630.5)"><path id="SvgjsPath1173" d="M 0 0L 78 0L 78 24L 0 24Z" stroke="rgba(50,50,50,1)" stroke-width="2" fill-opacity="1" fill="#ffcccc"></path><g id="SvgjsG1174"><text id="SvgjsText1175" font-family="微软雅黑" text-anchor="middle" font-size="13px" width="58px" fill="#323232" font-weight="400" align="middle" anchor="middle" family="微软雅黑" size="13px" weight="400" font-style="" opacity="1" y="2.05" transform="rotate(0)"><tspan id="SvgjsTspan1176" dy="16" x="39"><tspan id="SvgjsTspan1177" style="text-decoration:;">node-05</tspan></tspan></text></g></g><g id="SvgjsG1178" transform="translate(591.8589743589744,630.5)"><path id="SvgjsPath1179" d="M 0 0L 78 0L 78 24L 0 24Z" stroke="rgba(50,50,50,1)" stroke-width="2" fill-opacity="1" fill="#ffcccc"></path><g id="SvgjsG1180"><text id="SvgjsText1181" font-family="微软雅黑" text-anchor="middle" font-size="13px" width="58px" fill="#323232" font-weight="400" align="middle" anchor="middle" family="微软雅黑" size="13px" weight="400" font-style="" opacity="1" y="2.05" transform="rotate(0)"><tspan id="SvgjsTspan1182" dy="16" x="39"><tspan id="SvgjsTspan1183" style="text-decoration:;">node-06</tspan></tspan></text></g></g><g id="SvgjsG1184" transform="translate(155.5,381.25)"><path id="SvgjsPath1185" d="M 0 6.6000000000000005L 51 6.6000000000000005L 51 0L 61 10L 51 20L 51 13.4L 0 13.4L 0 6.6000000000000005Z" stroke="rgba(50,50,50,1)" stroke-width="2" fill-opacity="1" fill="#ffffff"></path><g id="SvgjsG1186"><text id="SvgjsText1187" font-family="微软雅黑" text-anchor="middle" font-size="13px" width="61px" fill="#323232" font-weight="400" align="middle" anchor="middle" family="微软雅黑" size="13px" weight="400" font-style="" opacity="1" y="0.05000000000000093" transform="rotate(0)"></text></g></g><g id="SvgjsG1188" transform="translate(246,711)"><path id="SvgjsPath1189" d="M 0 0L 471 0L 471 42L 0 42Z" stroke="rgba(50,50,50,1)" stroke-width="2" fill-opacity="1" fill="#33ff99"></path><g id="SvgjsG1190"><text id="SvgjsText1191" font-family="微软雅黑" text-anchor="middle" font-size="13px" width="451px" fill="#323232" font-weight="400" align="middle" anchor="middle" family="微软雅黑" size="13px" weight="400" font-style="" opacity="1" y="11.05" transform="rotate(0)"><tspan id="SvgjsTspan1192" dy="16" x="235.5"><tspan id="SvgjsTspan1193" style="text-decoration:;">镜像仓库</tspan></tspan></text></g></g><g id="SvgjsG1194" transform="translate(258,93)"><path id="SvgjsPath1195" d="M 0 0L 447 0L 447 20L 0 20Z" stroke="none" fill="none"></path><g id="SvgjsG1196"><text id="SvgjsText1197" font-family="微软雅黑" text-anchor="middle" font-size="13px" width="447px" fill="#323232" font-weight="400" align="middle" anchor="middle" family="微软雅黑" size="13px" weight="400" font-style="" opacity="1" y="0.050000000000000044" transform="rotate(0)"><tspan id="SvgjsTspan1198" dy="16" x="223.5"><tspan id="SvgjsTspan1199" style="text-decoration:;">OpenResty负载均衡</tspan></tspan></text></g></g><g id="SvgjsG1200" transform="translate(159,172.5)"><path id="SvgjsPath1201" d="M 0 0L 54 0L 54 29L 0 29Z" stroke="none" fill="none"></path><g id="SvgjsG1202"><text id="SvgjsText1203" font-family="微软雅黑" text-anchor="middle" font-size="13px" width="54px" fill="#323232" font-weight="400" align="middle" anchor="middle" family="微软雅黑" size="13px" weight="400" font-style="" opacity="1" y="4.55" transform="rotate(0)"><tspan id="SvgjsTspan1204" dy="16" x="27"><tspan id="SvgjsTspan1205" style="text-decoration:;">部署网关</tspan></tspan></text></g></g><g id="SvgjsG1206" transform="translate(155.5,201.5)"><path id="SvgjsPath1207" d="M 0 6.6000000000000005L 51 6.6000000000000005L 51 0L 61 10L 51 20L 51 13.4L 0 13.4L 0 6.6000000000000005Z" stroke="rgba(50,50,50,1)" stroke-width="2" fill-opacity="1" fill="#ffffff"></path><g id="SvgjsG1208"><text id="SvgjsText1209" font-family="微软雅黑" text-anchor="middle" font-size="13px" width="61px" fill="#323232" font-weight="400" align="middle" anchor="middle" family="微软雅黑" size="13px" weight="400" font-style="" opacity="1" y="0.05000000000000093" transform="rotate(0)"></text></g></g><g id="SvgjsG1210" transform="translate(162.5,687.5)"><path id="SvgjsPath1211" d="M 0 0L 54 0L 54 29L 0 29Z" stroke="none" fill="none"></path><g id="SvgjsG1212"><text id="SvgjsText1213" font-family="微软雅黑" text-anchor="middle" font-size="13px" width="54px" fill="#323232" font-weight="400" align="middle" anchor="middle" family="微软雅黑" size="13px" weight="400" font-style="" opacity="1" y="4.55" transform="rotate(0)"><tspan id="SvgjsTspan1214" dy="16" x="27"><tspan id="SvgjsTspan1215" style="text-decoration:;">打包镜像</tspan></tspan></text></g></g><g id="SvgjsG1216" transform="translate(159,716.5)"><path id="SvgjsPath1217" d="M 0 6.6000000000000005L 51 6.6000000000000005L 51 0L 61 10L 51 20L 51 13.4L 0 13.4L 0 6.6000000000000005Z" stroke="rgba(50,50,50,1)" stroke-width="2" fill-opacity="1" fill="#ffffff"></path><g id="SvgjsG1218"><text id="SvgjsText1219" font-family="微软雅黑" text-anchor="middle" font-size="13px" width="61px" fill="#323232" font-weight="400" align="middle" anchor="middle" family="微软雅黑" size="13px" weight="400" font-style="" opacity="1" y="0.05000000000000093" transform="rotate(0)"></text></g></g><g id="SvgjsG1220" transform="translate(590,352.25)"><path id="SvgjsPath1221" d="M 0 0L 38 0L 38 24L 0 24Z" stroke="none" fill="none"></path><g id="SvgjsG1222"><text id="SvgjsText1223" font-family="微软雅黑" text-anchor="middle" font-size="13px" width="38px" fill="#323232" font-weight="400" align="middle" anchor="middle" family="微软雅黑" size="13px" weight="400" font-style="" opacity="1" y="2.05" transform="rotate(0)"><tspan id="SvgjsTspan1224" dy="16" x="19"><tspan id="SvgjsTspan1225" style="text-decoration:;">转发</tspan></tspan></text></g></g><g id="SvgjsG1226" transform="translate(258,481)"><path id="SvgjsPath1227" d="M 0 0L 447 0L 447 20L 0 20Z" stroke="none" fill="none"></path><g id="SvgjsG1228"><text id="SvgjsText1229" font-family="微软雅黑" text-anchor="middle" font-size="13px" width="447px" fill="#323232" font-weight="400" align="middle" anchor="middle" family="微软雅黑" size="13px" weight="400" font-style="" opacity="1" y="0.050000000000000044" transform="rotate(0)"><tspan id="SvgjsTspan1230" dy="16" x="223.5"><tspan id="SvgjsTspan1231" style="text-decoration:;">kubernetes集群</tspan></tspan></text></g></g></svg>