<?xml version="1.0" standalone="no"?><?xml-stylesheet type="text/css" href="https://www.processon.com/themes/default/mind/icons/icons.css" ?><!DOCTYPE svg PUBLIC "-//W3C//DTD SVG 1.1//EN" "http://www.w3.org/Graphics/SVG/1.1/DTD/svg11.dtd">
<svg xmlns="http://www.w3.org/2000/svg" version="1.1" xlink="http://www.w3.org/1999/xlink" id="mind-svg-con" width="833.609375px" height="588px" style="position: absolute; left: 0px; top: 0px; width: 833.609px; height: 588px; background: rgb(247, 247, 247); z-index: 999;"><defs></defs><g id="svgbackgroundid"><defs></defs><rect x="0" y="0" width="833.609375" height="588" fill="#F7F7F7"></rect></g><g transform="translate(-9810.5, -9631)" id="sdjakdjak7"><defs></defs><g class="svg-topic-con" transform="translate(0.5,0.5)"><path part="right" sub="true" id="line_267cea31d110" d="M 10000 9936.5 L 10154.5 9936.5 C 10194.5 9936.5 10194.5 9691.5 10259.5 9691.5 L 10376.5 9691.5" stroke="#FDB813" fill="none" stroke-linecap="round" stroke-width="3"></path><path part="right" sub="true" id="line_ae0361d72256" d="M 10000 9936.5 L 10154.5 9936.5 C 10194.5 9936.5 10194.5 9753.5 10259.5 9753.5 L 10424.5 9753.5" stroke="#e85d4e" fill="none" stroke-linecap="round" stroke-width="3"></path><path part="right" sub="true" id="line_ae01e82c66f2" d="M 10000 9936.5 L 10154.5 9936.5 C 10194.5 9936.5 10194.5 9815.5 10259.5 9815.5 L 10434.5 9815.5" stroke="rgb(153,204,255)" fill="none" stroke-linecap="round" stroke-width="3"></path><path part="right" sub="true" id="line_3ebb5e510424" d="M 10000 9936.5 L 10154.5 9936.5 C 10194.5 9936.5 10194.5 9877.5 10259.5 9877.5 L 10360.5 9877.5" stroke="rgb(212, 164, 235)" fill="none" stroke-linecap="round" stroke-width="3"></path><path part="right" sub="true" id="line_ade8d3d46201" d="M 10000 9936.5 L 10154.5 9936.5 C 10194.5 9936.5 10194.5 9939.5 10259.5 9939.5 L 10392.5 9939.5" stroke="rgb(212, 164, 235)" fill="none" stroke-linecap="round" stroke-width="3"></path><path part="right" sub="true" id="line_814f65b6d61d" d="M 10000 9936.5 L 10154.5 9936.5 C 10194.5 9936.5 10194.5 10094.5 10259.5 10094.5 L 10392.5 10094.5" stroke="rgb(232, 124, 37)" fill="none" stroke-linecap="round" stroke-width="3"></path></g><g class="svg-connection-con" transform="translate(0.5,0.5)"></g><g class="svg-freesums-con" transform="translate(0.5,0.5)"></g><g class="svg-freebos-con" transform="translate(0.5,0.5)"></g></g><g id="814f65b6d61d"><rect x="449" y="433.171875" rx="1px" ry="1px" width="133" height="30" style="fill: transparent; stroke:none;"></rect><g><text text-anchor="start" align="top" anchor="start" font-size="16px" font-weight="normal" fill="rgb(13, 11, 34)" style="font-family: 微软雅黑;font-size:16px;font-family:微软雅黑;color:#0D0B22;font-style:normal;text-align:left;font-weight:normal;font-family: 微软雅黑;font-style: normal;"><tspan x="463" y="455.03125"><tspan>Feign性能优化</tspan></tspan></text></g></g><g id="5eca37c5920b"><rect x="657.609375" y="340" rx="1px" ry="1px" width="103" height="30" style="fill: transparent; stroke:none;"></rect><g><text text-anchor="start" align="top" anchor="start" font-size="13px" font-weight="400" fill="rgb(13, 11, 34)" style="font-family: 微软雅黑;font-size:13px;font-family:微软雅黑;color:#0D0B22;font-style:normal;text-align:left;font-weight:400;font-family: 微软雅黑;font-style: normal;"><tspan x="666.609375" y="360.640625"><tspan>Feign请求传参</tspan></tspan></text></g></g><g id="7964781fe352"><rect x="657.609375" y="386.640625" rx="1px" ry="1px" width="146" height="30" style="fill: transparent; stroke:none;"></rect><g><text text-anchor="start" align="top" anchor="start" font-size="13px" font-weight="400" fill="rgb(13, 11, 34)" style="font-family: 微软雅黑;font-size:13px;font-family:微软雅黑;color:#0D0B22;font-style:normal;text-align:left;font-weight:400;font-family: 微软雅黑;font-style: normal;"><tspan x="666.609375" y="407.28125"><tspan>Feign负载均衡 ribbon</tspan></tspan></text></g></g><g id="6f987859d6dd"><rect x="657.609375" y="433.28125" rx="1px" ry="1px" width="77" height="30" style="fill: transparent; stroke:none;"></rect><g><text text-anchor="start" align="top" anchor="start" font-size="13px" font-weight="400" fill="rgb(13, 11, 34)" style="font-family: 微软雅黑;font-size:13px;font-family:微软雅黑;color:#0D0B22;font-style:normal;text-align:left;font-weight:400;font-family: 微软雅黑;font-style: normal;"><tspan x="666.609375" y="453.921875"><tspan>Feign日志</tspan></tspan></text></g></g><g id="05d2df5ff583"><rect x="657.609375" y="479.921875" rx="1px" ry="1px" width="48" height="30" style="fill: transparent; stroke:none;"></rect><g><text text-anchor="start" align="top" anchor="start" font-size="13px" font-weight="400" fill="rgb(13, 11, 34)" style="font-family: 微软雅黑;font-size:13px;font-family:微软雅黑;color:#0D0B22;font-style:normal;text-align:left;font-weight:400;font-family: 微软雅黑;font-style: normal;"><tspan x="666.609375" y="500.5625"><tspan>GZip</tspan></tspan></text></g></g><g id="04471c80b8f6"><rect x="657.609375" y="526.5625" rx="1px" ry="1px" width="60" height="30" style="fill: transparent; stroke:none;"></rect><g><text text-anchor="start" align="top" anchor="start" font-size="13px" font-weight="400" fill="rgb(13, 11, 34)" style="font-family: 微软雅黑;font-size:13px;font-family:微软雅黑;color:#0D0B22;font-style:normal;text-align:left;font-weight:400;font-family: 微软雅黑;font-style: normal;"><tspan x="666.609375" y="547.203125"><tspan>Hystrix</tspan></tspan></text></g></g><g id="ade8d3d46201"><rect x="449" y="278" rx="1px" ry="1px" width="133" height="30" style="fill: transparent; stroke:none;"></rect><g><text text-anchor="start" align="top" anchor="start" font-size="16px" font-weight="normal" fill="rgb(13, 11, 34)" style="font-family: 微软雅黑;font-size:16px;font-family:微软雅黑;color:#0D0B22;font-style:normal;text-align:left;font-weight:normal;font-family: 微软雅黑;font-style: normal;"><tspan x="463" y="299.859375"><tspan>Feign源码解析</tspan></tspan></text></g></g><g id="3ebb5e510424"><rect x="449" y="216" rx="1px" ry="1px" width="101" height="30" style="fill: transparent; stroke:none;"></rect><g><text text-anchor="start" align="top" anchor="start" font-size="16px" font-weight="normal" fill="rgb(13, 11, 34)" style="font-family: 微软雅黑;font-size:16px;font-family:微软雅黑;color:#0D0B22;font-style:normal;text-align:left;font-weight:normal;font-family: 微软雅黑;font-style: normal;"><tspan x="463" y="237.859375"><tspan>Feign使用</tspan></tspan></text></g></g><g id="ae01e82c66f2"><rect x="449" y="154" rx="1px" ry="1px" width="175" height="30" style="fill: transparent; stroke:none;"></rect><g><text text-anchor="start" align="top" anchor="start" font-size="16px" font-weight="normal" fill="rgb(13, 11, 34)" style="font-family: 微软雅黑;font-size:16px;font-family:微软雅黑;color:#0D0B22;font-style:normal;text-align:left;font-weight:normal;font-family: 微软雅黑;font-style: normal;"><tspan x="463" y="175.859375"><tspan>Feign vs OpenFeign</tspan></tspan></text></g></g><g id="ae0361d72256"><rect x="449" y="92" rx="1px" ry="1px" width="165" height="30" style="fill: transparent; stroke:none;"></rect><g><text text-anchor="start" align="top" anchor="start" font-size="16px" font-weight="normal" fill="rgb(13, 11, 34)" style="font-family: 微软雅黑;font-size:16px;font-family:微软雅黑;color:#0D0B22;font-style:normal;text-align:left;font-weight:normal;font-family: 微软雅黑;font-style: normal;"><tspan x="463" y="113.859375"><tspan>Feign解决什么问题</tspan></tspan></text></g></g><g id="267cea31d110"><rect x="449" y="30" rx="1px" ry="1px" width="117" height="30" style="fill: transparent; stroke:none;"></rect><g><text text-anchor="start" align="top" anchor="start" font-size="16px" font-weight="normal" fill="rgb(13, 11, 34)" style="font-family: 微软雅黑;font-size:16px;font-family:微软雅黑;color:#0D0B22;font-style:normal;text-align:left;font-weight:normal;font-family: 微软雅黑;font-style: normal;"><tspan x="463" y="51.859375"><tspan>Feign是什么</tspan></tspan></text></g></g><g transform="translate(449, 340)" id="sdjakdjak0"><g id="subline_814f65b6d61d" transform="translate(0.5,-0.5)"><path id="line_5eca37c5920b" d="M 133 124 L 133 124 M 133 124 C 178.609375 124 170.8046875 32 208.609375 32 L 311.609375 32" p="814f65b6d61d" stroke="rgb(232, 124, 37)" fill="none" stroke-linecap="round" stroke-width="3"></path><path id="line_7964781fe352" d="M 133 124 L 133 124 M 133 124 C 178.609375 124 170.8046875 78 208.609375 78 L 354.609375 78" p="814f65b6d61d" stroke="rgb(232, 124, 37)" fill="none" stroke-linecap="round" stroke-width="3"></path><path id="line_6f987859d6dd" d="M 133 124 L 133 124 M 133 124 C 178.609375 124 170.8046875 124 208.609375 124 L 285.609375 124" p="814f65b6d61d" stroke="rgb(232, 124, 37)" fill="none" stroke-linecap="round" stroke-width="3"></path><path id="line_05d2df5ff583" d="M 133 124 L 133 124 M 133 124 C 178.609375 124 170.8046875 171 208.609375 171 L 256.609375 171" p="814f65b6d61d" stroke="rgb(232, 124, 37)" fill="none" stroke-linecap="round" stroke-width="3"></path><path id="line_04471c80b8f6" d="M 133 124 L 133 124 M 133 124 C 178.609375 124 170.8046875 218 208.609375 218 L 268.609375 218" p="814f65b6d61d" stroke="rgb(232, 124, 37)" fill="none" stroke-linecap="round" stroke-width="3"></path></g><g transform="translate(0.5,0)"></g><g class="svg-summary-con" transform="translate(0.5,0.5)"></g><g class="svg-boundary-con" transform="translate(0.5,0.5)"></g></g><g transform="translate(449, 278)" id="sdjakdjak1"><g id="subline_ade8d3d46201" transform="translate(0.5,-0.5)"></g><g transform="translate(0.5,0)"></g><g class="svg-summary-con" transform="translate(0.5,0.5)"></g><g class="svg-boundary-con" transform="translate(0.5,0.5)"></g></g><g transform="translate(449, 216)" id="sdjakdjak2"><g id="subline_3ebb5e510424" transform="translate(0.5,-0.5)"></g><g transform="translate(0.5,0)"></g><g class="svg-summary-con" transform="translate(0.5,0.5)"></g><g class="svg-boundary-con" transform="translate(0.5,0.5)"></g></g><g transform="translate(449, 154)" id="sdjakdjak3"><g id="subline_ae01e82c66f2" transform="translate(0.5,-0.5)"></g><g transform="translate(0.5,0)"></g><g class="svg-summary-con" transform="translate(0.5,0.5)"></g><g class="svg-boundary-con" transform="translate(0.5,0.5)"></g></g><g transform="translate(449, 92)" id="sdjakdjak4"><g id="subline_ae0361d72256" transform="translate(0.5,-0.5)"></g><g transform="translate(0.5,0)"></g><g class="svg-summary-con" transform="translate(0.5,0.5)"></g><g class="svg-boundary-con" transform="translate(0.5,0.5)"></g></g><g transform="translate(449, 30)" id="sdjakdjak5"><g id="subline_267cea31d110" transform="translate(0.5,-0.5)"></g><g transform="translate(0.5,0)"></g><g class="svg-summary-con" transform="translate(0.5,0.5)"></g><g class="svg-boundary-con" transform="translate(0.5,0.5)"></g></g><g transform="translate(30, 272)" id="sdjakdjak6"><g id="subline_root" transform="translate(0.5,-0.5)"></g><g transform="translate(0.5,0)"></g><g class="svg-summary-con" transform="translate(0.5,0.5)"></g><g class="svg-boundary-con" transform="translate(0.5,0.5)"></g></g><g id="root"><rect x="30" y="272" rx="7px" ry="7px" width="319" height="67" style="fill: #ffffff; stroke:none;"></rect><g><text text-anchor="start" align="top" anchor="start" font-size="24px" font-weight="normal" fill="rgb(42, 46, 54)" style="font-family: 微软雅黑;font-size:24px;font-family:微软雅黑;color:#2A2E36;font-style:normal;text-align:left;font-weight:normal;font-family: 微软雅黑;font-style: normal;"><tspan x="68" y="314.296875"><tspan>Feign-声明式服务调用</tspan></tspan></text></g></g></svg>
